<svg width="950" height="1082" viewBox="0 0 950 1082" fill="none" xmlns="http://www.w3.org/2000/svg">
<mask id="mask0_1501_2" style="mask-type:alpha" maskUnits="userSpaceOnUse" x="0" y="0" width="950" height="1082">
<path d="M277.631 1081.04C227.838 1081.04 188.868 1071.4 167.041 1052.69C136.756 1026.65 96.9671 968.317 170.906 869.774C183.002 853.646 216.606 809.712 254.758 759.873C160.174 741.972 68.7285 709.397 26.0749 650.562C6.20326 623.166 -12.5316 577.052 10.887 512.72C98.9679 270.655 414.959 88.9707 441.515 74.0688C466.662 57.4405 639.049 -51.2341 731.996 29.5449C812.847 99.7836 771.739 200.144 738.726 243.396L673.927 329.082C732.496 343.665 811.119 369.789 868.096 413.223C964.362 486.596 956.359 596.679 938.534 645.201C933.805 659.013 881.101 801.762 677.156 941.966C583.663 1006.25 475.301 1052.28 372.033 1071.54C337.837 1077.95 305.96 1081.08 277.585 1081.08L277.631 1081.04ZM337.155 772.094C289.545 834.2 243.526 894.399 229.202 913.435C185.094 972.225 205.738 989.943 214.515 997.485C241.662 1020.84 440.106 1016.61 635.912 882.041C823.806 752.876 869.233 622.985 869.688 621.667L870.143 620.395C871.37 616.942 901.337 530.03 824.033 471.104C766.692 427.398 677.929 403.682 625.862 392.823L536.644 510.812L553.015 518.308C559.654 520.989 595.123 535.663 628.954 558.243C702.848 607.583 708.486 654.787 700.165 685.682C680.111 760.418 591.985 780.545 542.601 780.726C522.366 781.317 435.513 783.089 337.155 772.094ZM389.585 703.718C444.244 708.171 497.356 709.306 540.873 707.989H542.01C561.882 707.853 620.906 699.993 629.818 666.872C635.23 646.746 577.115 605.993 525.413 585.639L523.594 584.867L491.672 570.283L464.661 605.993C463.842 607.038 430.874 649.972 389.676 703.718H389.585ZM645.279 72.5241C593.349 72.5241 517.955 110.597 480.804 135.357L478.257 136.902C475.074 138.674 160.038 315.906 79.3691 537.572C65.8182 574.781 76.1405 595.498 85.0987 607.856C117.248 652.243 206.875 679.321 305.233 694.041C356.026 627.801 402.318 567.557 406.774 561.742L423.781 539.253L383.264 520.761C362.665 511.357 344.749 498.681 329.879 483.052C288.817 439.801 284.77 388.144 319.011 344.847C378.99 268.974 554.424 303.957 594.713 313.226L680.793 199.372C686.296 192.057 732.951 126.68 684.295 84.382C674.609 75.977 661.013 72.4787 645.279 72.4787V72.5241ZM459.386 370.107C419.415 370.107 387.084 376.15 376.171 389.961C369.577 398.275 360.573 409.724 382.719 433.031C391.131 441.891 401.454 449.114 413.504 454.612L468.753 479.827L545.921 377.74C516.454 372.833 486.215 370.062 459.386 370.062V370.107Z" fill="black"/>
</mask>
<g mask="url(#mask0_1501_2)">
<rect x="-9.74219" y="0.000488281" width="978.817" height="1081.08" fill="url(#paint0_linear_1501_2)"/>
<rect x="-5.61328" y="-0.707764" width="1016.08" height="1083.45" fill="url(#paint1_linear_1501_2)"/>
</g>
<defs>
<linearGradient id="paint0_linear_1501_2" x1="525.929" y1="-384.708" x2="252.69" y2="1167.36" gradientUnits="userSpaceOnUse">
<stop offset="0.182692" stop-color="#06EFFF"/>
<stop offset="0.346154" stop-color="#01B0FF"/>
<stop offset="0.601088" stop-color="#6100FF"/>
<stop offset="0.985577" stop-color="#FF00A8"/>
</linearGradient>
<linearGradient id="paint1_linear_1501_2" x1="550.452" y1="-386.259" x2="574.474" y2="1124.58" gradientUnits="userSpaceOnUse">
<stop offset="0.182692" stop-color="#06EFFF"/>
<stop offset="0.346154" stop-color="#01B0FF"/>
<stop offset="0.601088" stop-color="#4562FD"/>
<stop offset="0.985577" stop-color="#FF00A8"/>
</linearGradient>
</defs>
</svg>
